HIERARCHY
ROOT Hips
{
	OFFSET 0.000000 0.000000 0.000000
	CHANNELS 6 Xposition Yposition Zposition Xrotation Yrotation Zrotation
	JOINT LeftUpLeg_virtual
	{
		OFFSET 0.000000 0.000000 0.000000
		CHANNELS 3 Xrotation Yrotation Zrotation
		JOINT LeftUpLeg
		{
			OFFSET 10.205400 -3.823500 0.155100
			CHANNELS 3 Xrotation Yrotation Zrotation
			JOINT LeftLeg
			{
				OFFSET 0.708757 -12.982077 0.567790
				CHANNELS 3 Xrotation Yrotation Zrotation
				JOINT LeftFoot
				{
					OFFSET -0.708756 -10.717838 -2.184338
					CHANNELS 3 Xrotation Yrotation Zrotation
					JOINT LeftToeBase
					{
						OFFSET 0.108149 -7.191104 7.560241
						CHANNELS 3 Xrotation Yrotation Zrotation
						JOINT LeftToe_End
						{
							OFFSET 0.070230 0.081724 4.490308
							CHANNELS 3 Xrotation Yrotation Zrotation
							End Site
							{
								OFFSET 0 0 0
							}
						}
					}
				}
			}
		}
	}
	JOINT RightUpLeg_virtual
	{
		OFFSET 0.000000 0.000000 0.000000
		CHANNELS 3 Xrotation Yrotation Zrotation
		JOINT RightUpLeg
		{
			OFFSET -10.205400 -3.823500 0.005500
			CHANNELS 3 Xrotation Yrotation Zrotation
			JOINT RightLeg
			{
				OFFSET -0.708756 -12.982134 0.610632
				CHANNELS 3 Xrotation Yrotation Zrotation
				JOINT RightFoot
				{
					OFFSET 0.708754 -10.717769 -1.945823
					CHANNELS 3 Xrotation Yrotation Zrotation
					JOINT RightToeBase
					{
						OFFSET -0.108140 -7.191069 7.372968
						CHANNELS 3 Xrotation Yrotation Zrotation
						JOINT RightToe_End
						{
							OFFSET -0.070227 0.081735 4.479403
							CHANNELS 3 Xrotation Yrotation Zrotation
							End Site
							{
								OFFSET 0 0 0
							}
						}
					}
				}
			}
		}
	}
	JOINT Spine_virtual
	{
		OFFSET 0.000000 0.000000 0.000000
		CHANNELS 3 Xrotation Yrotation Zrotation
		JOINT Spine
		{
			OFFSET 0.000000 6.876099 0.125700
			CHANNELS 3 Xrotation Yrotation Zrotation
			JOINT Spine1
			{
				OFFSET 0.000000 5.730043 0.104720
				CHANNELS 3 Xrotation Yrotation Zrotation
				JOINT Spine1_split
				{
					OFFSET 0.000000 5.730043 0.104720
					CHANNELS 3 Xrotation Yrotation Zrotation
					JOINT Spine2
					{
						OFFSET 0.000000 5.730043 0.104720
						CHANNELS 3 Xrotation Yrotation Zrotation
						JOINT Neck_virtual
						{
							OFFSET 0.000000 0.000000 0.000000
							CHANNELS 3 Xrotation Yrotation Zrotation
							JOINT Neck
							{
								OFFSET 0.000000 10.314075 0.188496
								CHANNELS 3 Xrotation Yrotation Zrotation
								JOINT Head
								{
									OFFSET 0.000000 7.643700 -2.377400
									CHANNELS 3 Xrotation Yrotation Zrotation
									JOINT HeadTop_End
									{
										OFFSET 0.000000 43.788605 -13.619600
										CHANNELS 3 Xrotation Yrotation Zrotation
										End Site
										{
											OFFSET 0 0 0
										}
									}
								}
							}
						}
						JOINT LeftShoulder_virtual
						{
							OFFSET 0.000000 0.000000 0.000000
							CHANNELS 3 Xrotation Yrotation Zrotation
							JOINT LeftShoulder
							{
								OFFSET 2.196100 4.412489 0.087492
								CHANNELS 3 Xrotation Yrotation Zrotation
								JOINT LeftShoulder_split
								{
									OFFSET 2.196100 4.412489 0.087492
									CHANNELS 3 Xrotation Yrotation Zrotation
									JOINT LeftArm
									{
										OFFSET 8.771219 -2.981674 -0.026999
										CHANNELS 3 Xrotation Yrotation Zrotation
										JOINT LeftForeArm
										{
											OFFSET 8.512804 0.000000 -0.000000
											CHANNELS 3 Xrotation Yrotation Zrotation
											JOINT LeftHand
											{
												OFFSET 18.484802 0.000000 -0.000000
												CHANNELS 3 Xrotation Yrotation Zrotation
												End Site
												{
													OFFSET 0 0 0
												}
											}
										}
									}
								}
							}
						}
						JOINT RightShoulder_virtual
						{
							OFFSET 0.000000 0.000000 0.000000
							CHANNELS 3 Xrotation Yrotation Zrotation
							JOINT RightShoulder
							{
								OFFSET -2.196100 4.412496 0.070690
								CHANNELS 3 Xrotation Yrotation Zrotation
								JOINT RightShoulder_split
								{
									OFFSET -2.196100 4.412496 0.070690
									CHANNELS 3 Xrotation Yrotation Zrotation
									JOINT RightArm
									{
										OFFSET -8.771282 -2.981682 -0.094208
										CHANNELS 3 Xrotation Yrotation Zrotation
										JOINT RightForeArm
										{
											OFFSET -8.494598 0.000000 0.000000
											CHANNELS 3 Xrotation Yrotation Zrotation
											JOINT RightHand
											{
												OFFSET -18.483803 0.000000 0.000001
												CHANNELS 3 Xrotation Yrotation Zrotation
												End Site
												{
													OFFSET 0 0 0
												}
											}
										}
									}
								}
							}
						}
					}
				}
			}
		}
	}
}
MOTION
Frames: 4
Frame Time: 0.03333333
0.181493 49.359703 7.972561 0.000000 0.000000 0.000000 7.380134 -38.290262 4.750789 -81.227533 -18.285912 22.405443 83.493858 -0.556929 4.670606 -2.774273 4.796181 -5.040541 -7.194412 2.039760 -1.922320 0.000000 0.000000 0.000000 8.075861 -39.995983 4.591264 -120.070587 -37.078819 -4.080229 113.386188 14.807548 -12.868065 40.380382 6.618919 27.494483 9.000985 4.500712 -2.916433 0.000000 0.000000 0.000000 7.454445 -39.228700 3.442253 30.645860 -5.333238 -7.037031 11.685304 1.294934 -3.383403 0.530895 1.064259 1.134462 0.000000 0.000000 0.000000 11.655764 1.203940 -2.259370 -6.739551 18.221428 -14.615690 -26.052765 12.584245 3.117453 0.000000 0.000000 0.000000 13.054459 1.412631 -3.002751 11.757698 -10.446971 0.238787 -0.609735 -3.195653 -4.057903 -54.804150 6.200752 1.086777 47.183015 -17.672274 30.634741 0.000000 0.000000 0.000000 14.030386 1.624853 -2.542816 17.496359 22.423981 -5.766757 0.576419 4.043785 2.081294 -34.431247 -14.579449 2.914812 -50.168491 50.217238 40.547131 0.000000 0.000000 0.000000 
0.193374 49.369942 7.955670 0.000000 0.000000 0.000000 7.409079 -38.083373 4.746051 -81.313730 -18.188329 22.428321 83.479330 -0.513010 4.582464 -2.622359 4.817922 -4.932445 -7.199988 2.045713 -1.988610 0.000000 0.000000 0.000000 8.111113 -39.984382 4.591648 -120.177711 -37.039993 -4.083047 113.407054 14.856621 -12.969997 40.401252 6.721462 27.502470 8.980054 4.499659 -2.927751 0.000000 0.000000 0.000000 7.495064 -39.148008 3.397926 30.558652 -5.391574 -7.050897 11.736533 1.247191 -3.389308 0.519093 1.106930 0.997053 0.000000 0.000000 0.000000 11.695437 1.187509 -2.270422 -6.948968 18.310953 -14.519736 -26.045953 12.523018 3.225565 0.000000 0.000000 0.000000 13.089057 1.388068 -2.957877 11.936281 -10.804351 1.065508 -0.768943 -3.068313 -3.674770 -56.182356 5.447732 1.517038 47.135665 -17.831078 30.694952 0.000000 0.000000 0.000000 14.085772 1.558334 -2.549200 17.588406 22.109331 -6.193737 0.760411 4.205219 1.803045 -34.968383 -14.690820 2.581907 -50.359371 50.607214 40.707398 0.000000 0.000000 0.000000 
0.231261 49.372925 7.915389 0.000000 0.000000 0.000000 7.419483 -37.684414 4.651650 -81.552308 -18.148147 22.357342 83.503222 -0.511349 4.543282 -2.312330 4.745743 -4.736085 -7.173009 2.037169 -1.991288 0.000000 0.000000 0.000000 8.133002 -39.780002 4.498619 -120.369421 -36.988825 -4.051846 113.480014 14.920326 -13.084398 40.561017 6.910126 27.620766 8.837814 4.460367 -2.818695 0.000000 0.000000 0.000000 7.612546 -38.957370 3.345527 30.449239 -5.434955 -7.122287 11.772207 1.216954 -3.427526 0.430786 1.137444 0.956327 0.000000 0.000000 0.000000 11.775055 1.209971 -2.309554 -7.129313 18.312791 -14.329305 -26.157639 12.406438 3.406156 0.000000 0.000000 0.000000 13.133285 1.413659 -2.927863 12.226715 -11.321876 2.477495 -0.647798 -2.669135 -3.535326 -57.726122 3.961594 2.252473 47.075904 -18.010647 30.678901 0.000000 0.000000 0.000000 14.140197 1.521228 -2.595416 17.870490 21.683991 -7.108281 0.927904 4.239764 1.825309 -35.885397 -14.952676 1.770923 -51.480037 51.464174 41.915689 0.000000 0.000000 0.000000 
0.282817 49.368492 7.877334 0.000000 0.000000 0.000000 7.406408 -37.209057 4.481501 -81.912983 -18.188514 22.209113 83.574236 -0.569047 4.566807 -1.894208 4.582551 -4.521808 -7.132030 2.017381 -1.931152 0.000000 0.000000 0.000000 8.123689 -39.467217 4.323523 -120.633913 -36.936082 -4.011341 113.620887 14.953477 -13.181280 40.778545 7.090440 27.799032 8.691686 4.389167 -2.608262 0.000000 0.000000 0.000000 7.796290 -38.715213 3.287309 30.332085 -5.458490 -7.233552 11.804133 1.201896 -3.479696 0.313711 1.107333 0.974071 0.000000 0.000000 0.000000 11.906574 1.263598 -2.367169 -7.256044 18.244651 -14.085295 -26.328810 12.250912 3.617439 0.000000 0.000000 0.000000 13.190788 1.471075 -2.919533 12.609921 -11.957939 4.251512 -0.395164 -2.261353 -3.683433 -59.111483 2.006542 2.912822 46.941428 -17.988172 30.496296 0.000000 0.000000 0.000000 14.189366 1.516922 -2.668015 18.294100 21.243565 -8.359706 1.064548 4.171155 2.005845 -36.959462 -15.223226 0.720276 -53.188944 52.517461 43.808287 0.000000 0.000000 0.000000 
